<?xml version='1.0' encoding='utf-8'?>
<svg xmlns="http://www.w3.org/2000/svg" width="100%" height="100%" version="1.1" style="shape-rendering:geometricPrecision; text-rendering:geometricPrecision; image-rendering:optimizeQuality; fill-rule:evenodd; clip-rule:evenodd" viewBox="0 0 9144 9144"> <defs> <style type="text/css">  .fil0 {fill:#F0F0F0} .fil1 {fill:#011627;fill-rule:nonzero}  </style> </defs> <g id="Camada_x0020_1"> <metadata id="CorelCorpID_0Corel-Layer"/> <polygon class="fil0" points="0,0 9144,0 9144,9144 0,9144 "/> <path class="fil1" d="M2842 4064c0,-91 37,-173 97,-233 60,-60 142,-97 233,-97 44,0 85,8 123,23 0,-3 -1,-7 -1,-11 0,-216 59,-419 162,-595 91,-156 216,-291 365,-395l-113 -189c-31,-50 -38,-108 -24,-161 13,-53 47,-101 97,-132 51,-30 109,-37 162,-24 53,13 101,47 131,98l136 226c45,-13 91,-23 138,-31 71,-11 143,-18 216,-18 77,0 153,7 227,20 50,9 99,20 147,35l139 -232c31,-51 79,-85 132,-98 53,-13 111,-6 161,24 51,31 85,79 98,132 13,53 6,111 -24,161l-121 201c145,105 266,238 354,392 99,174 156,374 156,586 0,7 -1,13 -2,20 43,-21 90,-32 141,-32 91,0 173,37 234,97 59,59 96,142 96,233l0 1298c0,91 -37,173 -97,233 -60,60 -142,97 -233,97 -52,0 -101,-12 -144,-33l0 34c0,111 -45,211 -118,284 -2,2 -4,4 -6,6 -72,69 -170,112 -278,112l-69 0 0 469c0,93 -37,177 -98,237 -61,62 -145,99 -238,99 -92,0 -176,-37 -237,-98 -61,-61 -99,-145 -99,-238l0 -469 -214 0 0 469c0,93 -37,177 -98,237 -61,62 -145,99 -238,99 -92,0 -176,-37 -237,-98 -61,-61 -99,-145 -99,-238l0 -469 -81 0c-111,0 -212,-45 -284,-118 -73,-72 -118,-173 -118,-284l0 -34c-43,21 -92,33 -144,33 -91,0 -173,-37 -233,-97 -60,-60 -97,-142 -97,-233l0 -1298zm2160 -998c51,0 93,42 93,93 0,52 -42,93 -93,93 -52,0 -93,-41 -93,-93 0,-51 41,-93 93,-93zm-860 0c52,0 93,42 93,93 0,52 -41,93 -93,93 -51,0 -93,-41 -93,-93 0,-51 42,-93 93,-93zm-657 587l2157 0c-13,-144 -58,-280 -127,-401 -87,-153 -213,-282 -366,-376 -44,-27 -57,-84 -30,-128l3 -5 162 -271c4,-7 5,-14 4,-21 -2,-7 -7,-14 -13,-17 -7,-4 -14,-5 -21,-4 -7,2 -14,7 -17,13l-178 296c-23,39 -70,54 -111,39 -60,-21 -123,-38 -189,-49 -63,-11 -128,-17 -195,-17 -65,0 -127,5 -187,15 -61,10 -121,25 -179,45 -44,15 -91,-5 -112,-44l-171 -285c-4,-6 -10,-11 -17,-13 -7,-1 -15,0 -21,4 -7,3 -11,10 -13,17 -2,7 -1,14 3,21l160 266c26,44 12,101 -32,127l-1 1 1 0c-158,93 -288,223 -378,378 -72,123 -118,261 -132,409zm17 411l0 1298 0 331c0,60 24,114 63,152 39,39 93,64 153,64l175 0c51,0 93,41 93,93l0 562c0,42 16,80 43,107 27,27 65,43 106,43 42,0 79,-17 106,-43 27,-28 44,-65 44,-107l0 -562c0,-52 42,-93 93,-93l401 0c51,0 93,41 93,93l0 562c0,42 16,80 43,107 27,27 65,43 106,43 42,0 79,-17 106,-43 27,-28 44,-65 44,-107l0 -562c0,-52 42,-93 93,-93l162 0c58,0 110,-23 148,-59l4 -5c39,-39 64,-93 64,-152l0 -331 0 -1298 0 -225 -2140 0 0 225zm2368 -102c-26,26 -42,62 -42,102l0 1298c0,40 16,76 42,102 26,26 62,42 102,42 40,0 76,-16 102,-42 26,-26 42,-62 42,-102l0 -1298c0,-40 -16,-76 -42,-102 -26,-26 -62,-42 -102,-42 -40,0 -76,16 -102,42zm-2800 0c-26,26 -42,62 -42,102l0 1298c0,40 16,76 42,102 26,26 62,42 102,42 40,0 76,-16 102,-42l0 0c26,-26 42,-62 42,-102l0 -1298c0,-40 -16,-76 -42,-102l0 0 0 0c-26,-26 -62,-42 -102,-42 -40,0 -76,16 -102,42z"/> </g> </svg>